<?xml version="1.0" encoding="utf-8"?>
<!-- Generator: Adobe Illustrator 25.0.0, SVG Export Plug-In . SVG Version: 6.00 Build 0)  -->
<svg version="1.1" id="Layer_1" xmlns="http://www.w3.org/2000/svg" xmlns:xlink="http://www.w3.org/1999/xlink" x="0px" y="0px"
	 viewBox="0 0 446.8 93.5" style="enable-background:new 0 0 446.8 93.5;" xml:space="preserve">
<style type="text/css">
	.st0{fill:#FFFFFF;}
</style>
<g>
	<path class="st0" d="M125.8,62.3h23.4v12.2h-37V18.4h13.6V62.3z"/>
	<path class="st0" d="M194.8,21.2c4.3,2.5,7.7,5.9,10.2,10.2c2.5,4.4,3.7,9.3,3.7,14.8c0,5.5-1.3,10.4-3.8,14.8
		c-2.5,4.4-5.9,7.8-10.2,10.3c-4.3,2.5-9.1,3.7-14.3,3.7s-10-1.2-14.3-3.7c-4.3-2.5-7.7-5.9-10.2-10.3s-3.8-9.3-3.8-14.8
		c0-5.5,1.3-10.4,3.8-14.8s5.9-7.8,10.2-10.2c4.3-2.5,9.1-3.7,14.3-3.7C185.7,17.5,190.5,18.7,194.8,21.2z M169.8,34.4
		c-2.6,2.9-3.9,6.8-3.9,11.8c0,4.9,1.3,8.8,3.9,11.7c2.6,2.9,6.1,4.4,10.6,4.4c4.4,0,7.9-1.5,10.6-4.4c2.6-2.9,4-6.8,4-11.7
		s-1.3-8.8-3.9-11.7c-2.6-2.9-6.1-4.4-10.6-4.4C176,30.1,172.4,31.6,169.8,34.4z"/>
	<path class="st0" d="M242.8,45.8l22.6,28.6H249l-19-25.2v25.2h-13.6V18.4h13.6v24.7l19.2-24.7h16.3L242.8,45.8z"/>
	<path class="st0" d="M286.4,18.4v56.1h-13.6V18.4H286.4z"/>
	<path class="st0" d="M366.8,29.2v11.7h22.5v10.2h-22.5v12.5h24.9v10.9h-38.5V18.4h38.5v10.8H366.8z"/>
	<path class="st0" d="M446.8,18.4v10.8h-17v45.3h-13.6V29.2h-16.9V18.4H446.8z"/>
	<g>
		<polygon class="st0" points="56.1,65.5 46.8,74.8 37.4,65.5 28.1,74.8 46.8,93.5 65.5,74.8 		"/>
		<polygon class="st0" points="65.5,56.1 74.8,46.8 65.5,37.4 74.8,28.1 93.5,46.8 74.8,65.5 		"/>
		<polygon class="st0" points="28.1,37.4 18.7,46.8 28.1,56.1 18.7,65.5 0,46.8 18.7,28.1 		"/>
		<polygon class="st0" points="37.4,28.1 46.8,18.7 56.1,28.1 65.5,18.7 46.8,0 28.1,18.7 		"/>
		
			<rect x="49.5" y="49.5" transform="matrix(0.7071 0.7071 -0.7071 0.7071 56.1202 -23.2457)" class="st0" width="13.2" height="13.2"/>
		
			<rect x="30.8" y="30.8" transform="matrix(0.7071 0.7071 -0.7071 0.7071 37.4135 -15.4972)" class="st0" width="13.2" height="13.2"/>
		
			<rect x="49.5" y="30.8" transform="matrix(0.7071 0.7071 -0.7071 0.7071 42.8925 -28.7248)" class="st0" width="13.2" height="13.2"/>
		
			<rect x="30.8" y="49.5" transform="matrix(0.7071 0.7071 -0.7071 0.7071 50.6411 -10.0181)" class="st0" width="13.2" height="13.2"/>
	</g>
	<path class="st0" d="M343.9,74.5h-10l-24.5-31.7v31.7h-13.6V18.4h10l24.5,32.1V18.4h13.6V74.5z"/>
</g>
</svg>
