<?xml version="1.0" encoding="UTF-8" standalone="no"?>
<svg
   xmlns:dc="http://purl.org/dc/elements/1.1/"
   xmlns:cc="http://creativecommons.org/ns#"
   xmlns:rdf="http://www.w3.org/1999/02/22-rdf-syntax-ns#"
   xmlns:svg="http://www.w3.org/2000/svg"
   xmlns="http://www.w3.org/2000/svg"
   viewBox="0 0 340.6666 340.3333"
   height="340.3333"
   width="340.6666"
   xml:space="preserve"
   id="svg2"
   version="1.1"><metadata
     id="metadata8"><rdf:RDF><cc:Work
         rdf:about=""><dc:format>image/svg+xml</dc:format><dc:type
           rdf:resource="http://purl.org/dc/dcmitype/StillImage" /></cc:Work></rdf:RDF></metadata><defs
     id="defs6"><clipPath
       id="clipPath20"
       clipPathUnits="userSpaceOnUse"><path
         id="path18"
         d="M 0,256 H 260 V 0 H 0 Z" /></clipPath></defs><g
     transform="matrix(1.3333333,0,0,-1.3333333,0,340)"
     id="g10"><path
       id="path12"
       style="fill:#231f20;fill-opacity:1;fill-rule:nonzero;stroke:none"
       d="M 0,0 H 260 V 256 H 0 Z" /><g
       id="g14"><g
         clip-path="url(#clipPath20)"
         id="g16"><g
           transform="translate(127.1162,109.9014)"
           id="g22"><path
             id="path24"
             style="fill:#5d5d60;fill-opacity:1;fill-rule:nonzero;stroke:none"
             d="m 0,0 2.362,-2.162 4.269,-3.857 c 0.218,-0.196 0.418,-0.405 0.616,-0.615 l 4.045,-3.702 c 2.695,-2.44 2.694,-6.675 -10e-4,-9.114 l -4.949,-4.478 c 0.402,0.277 0.795,0.573 1.166,0.909 l 27.89,25.245 -16.465,14.91 z" /></g><g
           transform="translate(201.248,152.5483)"
           id="g26"><path
             id="path28"
             style="fill:#5d5d60;fill-opacity:1;fill-rule:nonzero;stroke:none"
             d="m 0,0 c -0.002,0.051 -0.005,0.101 -0.008,0.152 -0.106,5.676 -2.564,11.076 -6.809,14.86 l -55.329,49.344 c 1.505,-2.45 1.139,-5.733 -1.111,-7.77 l -4.144,-3.749 c -0.026,-0.024 -0.047,-0.049 -0.073,-0.073 L -74.864,46.077 -25.12,1.716 -38.729,-10.603 -4.49,-41.605 c 2.866,-2.596 4.503,-6.303 4.498,-10.172 -0.001,-0.378 -0.029,-0.752 -0.062,-1.125 0.042,0.391 0.067,0.786 0.067,1.188 v 0.964 2.364 2.364 2.364 2.364 2.364 2.364 0.357 2.364 2.364 2.363 2.365 2.364 2.364 2.363 2.365 2.363 2.364 2.364 2.365 2.363 2.364 2.364 0.523 C 0.013,-0.151 0.001,-0.076 0,0" /></g><g
           transform="translate(126.3345,144.8696)"
           id="g30"><path
             id="path32"
             style="fill:#5d5d60;fill-opacity:1;fill-rule:nonzero;stroke:none"
             d="m 0,0 -11.373,10.296 c -2.695,2.441 -2.694,6.675 0.002,9.115 l 3.088,2.794 c 0.037,0.042 0.068,0.087 0.105,0.128 0.547,0.604 1.149,1.128 1.786,1.583 l 0.005,0.004 c -0.351,-0.249 -0.693,-0.515 -1.02,-0.811 l -28.042,-25.382 16.487,-14.891 z" /></g><g
           transform="translate(114.751,46.3232)"
           id="g34"><path
             id="path36"
             style="fill:#5d5d60;fill-opacity:1;fill-rule:nonzero;stroke:none"
             d="m 0,0 3.483,3.151 c 0.22,0.237 0.446,0.469 0.69,0.689 l 7.369,6.651 -48.982,43.68 13.589,12.301 -34.958,31.574 c -2.86,2.581 -4.505,6.283 -4.509,10.15 -0.001,0.438 0.026,0.873 0.067,1.305 -0.045,-0.405 -0.072,-0.814 -0.072,-1.231 v -1.442 -2.38 -1.75 -0.63 -1.75 -2.38 -2.38 -2.381 -2.38 -2.38 -2.38 -2.381 -2.38 -2.38 -2.38 -2.381 -2.38 -2.38 -2.38 -2.381 -2.381 -2.379 -3.071 c 0,-5.814 2.49,-11.37 6.829,-15.239 L -1,-7.944 C -2.633,-5.479 -2.304,-2.085 0,0" /></g><g
           transform="translate(201.2559,100.7715)"
           id="g38"><path
             id="path40"
             style="fill:#fffef9;fill-opacity:1;fill-rule:nonzero;stroke:none"
             d="m 0,0 c 0.005,3.869 -1.632,7.576 -4.498,10.171 l -62.99,57.035 c -0.072,0.065 -0.149,0.119 -0.222,0.182 l -3.021,2.736 c -2.341,2.119 -5.908,2.12 -8.25,0.001 l -2.332,-2.111 c -0.638,-0.454 -1.239,-0.978 -1.786,-1.582 -0.038,-0.042 -0.068,-0.087 -0.105,-0.129 l -3.088,-2.794 c -2.697,-2.44 -2.697,-6.674 -0.002,-9.114 l 11.434,-10.352 0.01,0.01 48.618,-44.025 -56.1,-50.636 c -0.244,-0.22 -0.47,-0.453 -0.69,-0.689 l -3.483,-3.151 c -2.696,-2.441 -2.697,-6.674 -0.002,-9.115 l 7.31,-6.619 c 2.341,-2.119 5.907,-2.12 8.25,-0.001 l 12.096,10.947 -0.023,0.022 54.358,49.064 C -1.651,-7.567 -0.005,-3.866 0,0" /></g><g
           transform="translate(138.4077,99.5654)"
           id="g42"><path
             id="path44"
             style="fill:#fffef9;fill-opacity:1;fill-rule:nonzero;stroke:none"
             d="m 0,0 -4.044,3.702 c -0.199,0.21 -0.398,0.419 -0.616,0.615 l -4.269,3.857 -2.558,2.341 -0.017,-0.016 -49.239,44.474 56.109,50.774 c 0.026,0.023 0.048,0.049 0.073,0.073 l 4.144,3.749 c 2.696,2.44 2.698,6.674 0.002,9.115 l -7.309,6.618 c -2.341,2.12 -5.908,2.12 -8.25,10e-4 l -12.097,-10.946 0.004,-0.004 -54.412,-49.234 c -2.862,-2.591 -4.5,-6.296 -4.496,-10.165 0.004,-3.867 1.649,-7.569 4.51,-10.15 l 54.292,-49.036 -0.016,-0.015 12.627,-11.482 c 2.341,-2.12 5.908,-2.12 8.25,-0.001 l 7.311,6.616 C 2.695,-6.675 2.696,-2.44 0,0" /></g></g></g></g></svg>
